<mxfile host="app.diagrams.net" modified="2023-10-06T00:23:06.316Z" agent="Mozilla/5.0 (X11; Linux x86_64; rv:109.0) Gecko/20100101 Firefox/118.0" etag="kA1u86xZto0JhtsDM0K5" version="22.0.3" type="github">
  <diagram id="C5RBs43oDa-KdzZeNtuy" name="Page-1">
    <mxGraphModel dx="744" dy="536" grid="1" gridSize="10" guides="1" tooltips="1" connect="1" arrows="1" fold="1" page="1" pageScale="1" pageWidth="827" pageHeight="1169" math="0" shadow="0">
      <root>
        <mxCell id="WIyWlLk6GJQsqaUBKTNV-0" />
        <mxCell id="WIyWlLk6GJQsqaUBKTNV-1" parent="WIyWlLk6GJQsqaUBKTNV-0" />
        <mxCell id="cpkmOehmuOlewmSr3O2M-26" value="&lt;div&gt;Estoque&lt;/div&gt;" style="swimlane;fontStyle=1;align=center;verticalAlign=top;childLayout=stackLayout;horizontal=1;startSize=26;horizontalStack=0;resizeParent=1;resizeParentMax=0;resizeLast=0;collapsible=1;marginBottom=0;whiteSpace=wrap;html=1;" parent="WIyWlLk6GJQsqaUBKTNV-1" vertex="1">
          <mxGeometry x="460" y="50" width="280" height="150" as="geometry" />
        </mxCell>
        <mxCell id="cpkmOehmuOlewmSr3O2M-27" value="- produto: &amp;lt;List&amp;gt; Produto " style="text;strokeColor=none;fillColor=none;align=left;verticalAlign=top;spacingLeft=4;spacingRight=4;overflow=hidden;rotatable=0;points=[[0,0.5],[1,0.5]];portConstraint=eastwest;whiteSpace=wrap;html=1;" parent="cpkmOehmuOlewmSr3O2M-26" vertex="1">
          <mxGeometry y="26" width="280" height="24" as="geometry" />
        </mxCell>
        <mxCell id="cpkmOehmuOlewmSr3O2M-28" value="" style="line;strokeWidth=1;fillColor=none;align=left;verticalAlign=middle;spacingTop=-1;spacingLeft=3;spacingRight=3;rotatable=0;labelPosition=right;points=[];portConstraint=eastwest;strokeColor=inherit;" parent="cpkmOehmuOlewmSr3O2M-26" vertex="1">
          <mxGeometry y="50" width="280" height="8" as="geometry" />
        </mxCell>
        <mxCell id="cpkmOehmuOlewmSr3O2M-29" value="&lt;div&gt;+ getters ()&lt;/div&gt;+ setters ()&lt;div&gt;+ adicionarProduto(Produto, int):void&lt;/div&gt;&lt;div&gt;+ removerProduto(Produto, int):void&lt;/div&gt;&lt;div&gt;+ atualizarProduto(Produto):int&lt;br&gt;&lt;/div&gt;" style="text;strokeColor=none;fillColor=none;align=left;verticalAlign=top;spacingLeft=4;spacingRight=4;overflow=hidden;rotatable=0;points=[[0,0.5],[1,0.5]];portConstraint=eastwest;whiteSpace=wrap;html=1;" parent="cpkmOehmuOlewmSr3O2M-26" vertex="1">
          <mxGeometry y="58" width="280" height="92" as="geometry" />
        </mxCell>
        <mxCell id="cpkmOehmuOlewmSr3O2M-34" value="&lt;div&gt;Transportadora&lt;/div&gt;" style="swimlane;fontStyle=1;align=center;verticalAlign=top;childLayout=stackLayout;horizontal=1;startSize=26;horizontalStack=0;resizeParent=1;resizeParentMax=0;resizeLast=0;collapsible=1;marginBottom=0;whiteSpace=wrap;html=1;" parent="WIyWlLk6GJQsqaUBKTNV-1" vertex="1">
          <mxGeometry x="256" y="480" width="160" height="140" as="geometry" />
        </mxCell>
        <mxCell id="cpkmOehmuOlewmSr3O2M-35" value="&lt;div&gt;- nome:String&lt;/div&gt;&lt;div&gt;- telefone: String&lt;/div&gt;&lt;div&gt;- cnpj: String&lt;/div&gt;&lt;div&gt;- endereco: String&lt;/div&gt;" style="text;strokeColor=none;fillColor=none;align=left;verticalAlign=top;spacingLeft=4;spacingRight=4;overflow=hidden;rotatable=0;points=[[0,0.5],[1,0.5]];portConstraint=eastwest;whiteSpace=wrap;html=1;" parent="cpkmOehmuOlewmSr3O2M-34" vertex="1">
          <mxGeometry y="26" width="160" height="64" as="geometry" />
        </mxCell>
        <mxCell id="cpkmOehmuOlewmSr3O2M-36" value="" style="line;strokeWidth=1;fillColor=none;align=left;verticalAlign=middle;spacingTop=-1;spacingLeft=3;spacingRight=3;rotatable=0;labelPosition=right;points=[];portConstraint=eastwest;strokeColor=inherit;" parent="cpkmOehmuOlewmSr3O2M-34" vertex="1">
          <mxGeometry y="90" width="160" height="8" as="geometry" />
        </mxCell>
        <mxCell id="cpkmOehmuOlewmSr3O2M-37" value="&lt;div&gt;+ getters ()&lt;/div&gt;+ setters ()" style="text;strokeColor=none;fillColor=none;align=left;verticalAlign=top;spacingLeft=4;spacingRight=4;overflow=hidden;rotatable=0;points=[[0,0.5],[1,0.5]];portConstraint=eastwest;whiteSpace=wrap;html=1;" parent="cpkmOehmuOlewmSr3O2M-34" vertex="1">
          <mxGeometry y="98" width="160" height="42" as="geometry" />
        </mxCell>
        <mxCell id="cpkmOehmuOlewmSr3O2M-38" value="&lt;div&gt;Cliente&lt;/div&gt;&lt;div&gt;&lt;br&gt;&lt;/div&gt;" style="swimlane;fontStyle=1;align=center;verticalAlign=top;childLayout=stackLayout;horizontal=1;startSize=26;horizontalStack=0;resizeParent=1;resizeParentMax=0;resizeLast=0;collapsible=1;marginBottom=0;whiteSpace=wrap;html=1;" parent="WIyWlLk6GJQsqaUBKTNV-1" vertex="1">
          <mxGeometry x="475" y="530" width="260" height="160" as="geometry" />
        </mxCell>
        <mxCell id="cpkmOehmuOlewmSr3O2M-39" value="&lt;div&gt;- nome:String&lt;/div&gt;&lt;div&gt;- email: String&lt;/div&gt;&lt;div&gt;- telefone: String&lt;br&gt;&lt;/div&gt;" style="text;strokeColor=none;fillColor=none;align=left;verticalAlign=top;spacingLeft=4;spacingRight=4;overflow=hidden;rotatable=0;points=[[0,0.5],[1,0.5]];portConstraint=eastwest;whiteSpace=wrap;html=1;" parent="cpkmOehmuOlewmSr3O2M-38" vertex="1">
          <mxGeometry y="26" width="260" height="54" as="geometry" />
        </mxCell>
        <mxCell id="cpkmOehmuOlewmSr3O2M-40" value="" style="line;strokeWidth=1;fillColor=none;align=left;verticalAlign=middle;spacingTop=-1;spacingLeft=3;spacingRight=3;rotatable=0;labelPosition=right;points=[];portConstraint=eastwest;strokeColor=inherit;" parent="cpkmOehmuOlewmSr3O2M-38" vertex="1">
          <mxGeometry y="80" width="260" height="8" as="geometry" />
        </mxCell>
        <mxCell id="cpkmOehmuOlewmSr3O2M-41" value="&lt;div&gt;+ getters ()&lt;/div&gt;&lt;div&gt;+ setters ()&lt;br&gt;&lt;/div&gt;&lt;div&gt;+ realizarCompra(Produto):void&lt;/div&gt;&lt;div&gt;+ atualizarInformacoes(void):void&lt;br&gt;&lt;/div&gt;" style="text;strokeColor=none;fillColor=none;align=left;verticalAlign=top;spacingLeft=4;spacingRight=4;overflow=hidden;rotatable=0;points=[[0,0.5],[1,0.5]];portConstraint=eastwest;whiteSpace=wrap;html=1;" parent="cpkmOehmuOlewmSr3O2M-38" vertex="1">
          <mxGeometry y="88" width="260" height="72" as="geometry" />
        </mxCell>
        <mxCell id="cpkmOehmuOlewmSr3O2M-42" value="&lt;div&gt;Relatorio&lt;/div&gt;&lt;div&gt;&lt;br&gt;&lt;/div&gt;" style="swimlane;fontStyle=1;align=center;verticalAlign=top;childLayout=stackLayout;horizontal=1;startSize=26;horizontalStack=0;resizeParent=1;resizeParentMax=0;resizeLast=0;collapsible=1;marginBottom=0;whiteSpace=wrap;html=1;" parent="WIyWlLk6GJQsqaUBKTNV-1" vertex="1">
          <mxGeometry y="470" width="190" height="150" as="geometry" />
        </mxCell>
        <mxCell id="cpkmOehmuOlewmSr3O2M-43" value="&lt;div&gt;- tipo: String&lt;/div&gt;&lt;div&gt;- Date: dataGeracao&lt;/div&gt;" style="text;strokeColor=none;fillColor=none;align=left;verticalAlign=top;spacingLeft=4;spacingRight=4;overflow=hidden;rotatable=0;points=[[0,0.5],[1,0.5]];portConstraint=eastwest;whiteSpace=wrap;html=1;" parent="cpkmOehmuOlewmSr3O2M-42" vertex="1">
          <mxGeometry y="26" width="190" height="44" as="geometry" />
        </mxCell>
        <mxCell id="cpkmOehmuOlewmSr3O2M-44" value="" style="line;strokeWidth=1;fillColor=none;align=left;verticalAlign=middle;spacingTop=-1;spacingLeft=3;spacingRight=3;rotatable=0;labelPosition=right;points=[];portConstraint=eastwest;strokeColor=inherit;" parent="cpkmOehmuOlewmSr3O2M-42" vertex="1">
          <mxGeometry y="70" width="190" height="8" as="geometry" />
        </mxCell>
        <mxCell id="cpkmOehmuOlewmSr3O2M-45" value="&lt;div&gt;&lt;div&gt;+ getters ()&lt;/div&gt;+ setters ()&lt;/div&gt;&lt;div&gt;+ gerarRelatorio(void):void&lt;/div&gt;&lt;div&gt;+ exportarRelatorio(void):void&lt;br&gt;&lt;/div&gt;" style="text;strokeColor=none;fillColor=none;align=left;verticalAlign=top;spacingLeft=4;spacingRight=4;overflow=hidden;rotatable=0;points=[[0,0.5],[1,0.5]];portConstraint=eastwest;whiteSpace=wrap;html=1;" parent="cpkmOehmuOlewmSr3O2M-42" vertex="1">
          <mxGeometry y="78" width="190" height="72" as="geometry" />
        </mxCell>
        <mxCell id="cpkmOehmuOlewmSr3O2M-46" value="&lt;div&gt;Venda&lt;/div&gt;" style="swimlane;fontStyle=1;align=center;verticalAlign=top;childLayout=stackLayout;horizontal=1;startSize=26;horizontalStack=0;resizeParent=1;resizeParentMax=0;resizeLast=0;collapsible=1;marginBottom=0;whiteSpace=wrap;html=1;" parent="WIyWlLk6GJQsqaUBKTNV-1" vertex="1">
          <mxGeometry x="470" y="290" width="270" height="200" as="geometry" />
        </mxCell>
        <mxCell id="cpkmOehmuOlewmSr3O2M-47" value="&lt;div&gt;- cliente: Cliente&lt;br&gt;&lt;/div&gt;&lt;div&gt;- produtos: List &amp;lt;Produto&amp;gt; &lt;/div&gt;&lt;div&gt;- valorTotal: double&lt;br&gt;&lt;/div&gt;&lt;div&gt;- transportadora: Transportadora&lt;/div&gt;&lt;div&gt;&lt;br&gt;&lt;/div&gt;" style="text;strokeColor=none;fillColor=none;align=left;verticalAlign=top;spacingLeft=4;spacingRight=4;overflow=hidden;rotatable=0;points=[[0,0.5],[1,0.5]];portConstraint=eastwest;whiteSpace=wrap;html=1;" parent="cpkmOehmuOlewmSr3O2M-46" vertex="1">
          <mxGeometry y="26" width="270" height="74" as="geometry" />
        </mxCell>
        <mxCell id="cpkmOehmuOlewmSr3O2M-48" value="" style="line;strokeWidth=1;fillColor=none;align=left;verticalAlign=middle;spacingTop=-1;spacingLeft=3;spacingRight=3;rotatable=0;labelPosition=right;points=[];portConstraint=eastwest;strokeColor=inherit;" parent="cpkmOehmuOlewmSr3O2M-46" vertex="1">
          <mxGeometry y="100" width="270" height="8" as="geometry" />
        </mxCell>
        <mxCell id="cpkmOehmuOlewmSr3O2M-49" value="&lt;div&gt;+ getters ()&lt;/div&gt;&lt;div&gt;+ setters ()&lt;/div&gt;&lt;div&gt;+ adicionarProduto(Produto):void&lt;/div&gt;&lt;div&gt;+ calcularValorTotal(void):void&lt;/div&gt;&lt;div&gt;+ concluirVenda(void):void&lt;br&gt;&lt;/div&gt;" style="text;strokeColor=none;fillColor=none;align=left;verticalAlign=top;spacingLeft=4;spacingRight=4;overflow=hidden;rotatable=0;points=[[0,0.5],[1,0.5]];portConstraint=eastwest;whiteSpace=wrap;html=1;" parent="cpkmOehmuOlewmSr3O2M-46" vertex="1">
          <mxGeometry y="108" width="270" height="92" as="geometry" />
        </mxCell>
        <mxCell id="cpkmOehmuOlewmSr3O2M-56" value="&lt;div&gt;Gerente&lt;/div&gt;" style="swimlane;fontStyle=1;align=center;verticalAlign=top;childLayout=stackLayout;horizontal=1;startSize=26;horizontalStack=0;resizeParent=1;resizeParentMax=0;resizeLast=0;collapsible=1;marginBottom=0;whiteSpace=wrap;html=1;" parent="WIyWlLk6GJQsqaUBKTNV-1" vertex="1">
          <mxGeometry x="66" y="230" width="190" height="170" as="geometry" />
        </mxCell>
        <mxCell id="cpkmOehmuOlewmSr3O2M-57" value="&lt;div&gt;- nome: String&lt;/div&gt;&lt;div&gt;- email: String&lt;/div&gt;&lt;div&gt;- senha: String&lt;br&gt;&lt;/div&gt;" style="text;strokeColor=none;fillColor=none;align=left;verticalAlign=top;spacingLeft=4;spacingRight=4;overflow=hidden;rotatable=0;points=[[0,0.5],[1,0.5]];portConstraint=eastwest;whiteSpace=wrap;html=1;" parent="cpkmOehmuOlewmSr3O2M-56" vertex="1">
          <mxGeometry y="26" width="190" height="54" as="geometry" />
        </mxCell>
        <mxCell id="cpkmOehmuOlewmSr3O2M-58" value="" style="line;strokeWidth=1;fillColor=none;align=left;verticalAlign=middle;spacingTop=-1;spacingLeft=3;spacingRight=3;rotatable=0;labelPosition=right;points=[];portConstraint=eastwest;strokeColor=inherit;" parent="cpkmOehmuOlewmSr3O2M-56" vertex="1">
          <mxGeometry y="80" width="190" height="8" as="geometry" />
        </mxCell>
        <mxCell id="cpkmOehmuOlewmSr3O2M-59" value="&lt;div&gt;+ getters ()&lt;/div&gt;&lt;div&gt;+ setters ()&lt;/div&gt;&lt;div&gt;+ atualizarInfos(void): void&lt;/div&gt;&lt;div&gt;+ getRelatorios(void):void&lt;/div&gt;&lt;div&gt;&lt;br&gt;&lt;/div&gt;" style="text;strokeColor=none;fillColor=none;align=left;verticalAlign=top;spacingLeft=4;spacingRight=4;overflow=hidden;rotatable=0;points=[[0,0.5],[1,0.5]];portConstraint=eastwest;whiteSpace=wrap;html=1;" parent="cpkmOehmuOlewmSr3O2M-56" vertex="1">
          <mxGeometry y="88" width="190" height="82" as="geometry" />
        </mxCell>
        <mxCell id="cpkmOehmuOlewmSr3O2M-64" value="&lt;div&gt;Produto&lt;/div&gt;" style="swimlane;fontStyle=1;align=center;verticalAlign=top;childLayout=stackLayout;horizontal=1;startSize=26;horizontalStack=0;resizeParent=1;resizeParentMax=0;resizeLast=0;collapsible=1;marginBottom=0;whiteSpace=wrap;html=1;" parent="WIyWlLk6GJQsqaUBKTNV-1" vertex="1">
          <mxGeometry x="190" y="30" width="160" height="150" as="geometry" />
        </mxCell>
        <mxCell id="cpkmOehmuOlewmSr3O2M-65" value="&lt;div&gt;- nome: String&lt;/div&gt;&lt;div&gt;- quantidade: Int&lt;br&gt;&lt;/div&gt;&lt;div&gt;- preco: Float&lt;br&gt;&lt;/div&gt;&lt;div&gt;- categoria: String&lt;br&gt;&lt;/div&gt;" style="text;strokeColor=none;fillColor=none;align=left;verticalAlign=top;spacingLeft=4;spacingRight=4;overflow=hidden;rotatable=0;points=[[0,0.5],[1,0.5]];portConstraint=eastwest;whiteSpace=wrap;html=1;" parent="cpkmOehmuOlewmSr3O2M-64" vertex="1">
          <mxGeometry y="26" width="160" height="74" as="geometry" />
        </mxCell>
        <mxCell id="cpkmOehmuOlewmSr3O2M-66" value="" style="line;strokeWidth=1;fillColor=none;align=left;verticalAlign=middle;spacingTop=-1;spacingLeft=3;spacingRight=3;rotatable=0;labelPosition=right;points=[];portConstraint=eastwest;strokeColor=inherit;" parent="cpkmOehmuOlewmSr3O2M-64" vertex="1">
          <mxGeometry y="100" width="160" height="8" as="geometry" />
        </mxCell>
        <mxCell id="cpkmOehmuOlewmSr3O2M-67" value="&lt;div&gt;+ getters ()&lt;/div&gt;&lt;div&gt;+ setters ()&lt;/div&gt;&lt;div&gt;&lt;br&gt;&lt;/div&gt;" style="text;strokeColor=none;fillColor=none;align=left;verticalAlign=top;spacingLeft=4;spacingRight=4;overflow=hidden;rotatable=0;points=[[0,0.5],[1,0.5]];portConstraint=eastwest;whiteSpace=wrap;html=1;" parent="cpkmOehmuOlewmSr3O2M-64" vertex="1">
          <mxGeometry y="108" width="160" height="42" as="geometry" />
        </mxCell>
        <mxCell id="cpkmOehmuOlewmSr3O2M-69" value="" style="endArrow=none;html=1;rounded=0;exitX=1;exitY=0.5;exitDx=0;exitDy=0;entryX=0.001;entryY=0.671;entryDx=0;entryDy=0;entryPerimeter=0;" parent="WIyWlLk6GJQsqaUBKTNV-1" source="cpkmOehmuOlewmSr3O2M-65" target="cpkmOehmuOlewmSr3O2M-27" edge="1">
          <mxGeometry width="50" height="50" relative="1" as="geometry">
            <mxPoint x="420" y="470" as="sourcePoint" />
            <mxPoint x="470" y="420" as="targetPoint" />
          </mxGeometry>
        </mxCell>
        <mxCell id="cpkmOehmuOlewmSr3O2M-72" value="" style="endArrow=none;html=1;rounded=0;exitX=0.5;exitY=0;exitDx=0;exitDy=0;entryX=0;entryY=0.5;entryDx=0;entryDy=0;" parent="WIyWlLk6GJQsqaUBKTNV-1" source="cpkmOehmuOlewmSr3O2M-34" target="cpkmOehmuOlewmSr3O2M-47" edge="1">
          <mxGeometry width="50" height="50" relative="1" as="geometry">
            <mxPoint x="251" y="103" as="sourcePoint" />
            <mxPoint x="470" y="98" as="targetPoint" />
          </mxGeometry>
        </mxCell>
        <mxCell id="cpkmOehmuOlewmSr3O2M-73" value="" style="endArrow=none;html=1;rounded=0;exitX=0.5;exitY=0;exitDx=0;exitDy=0;entryX=0.493;entryY=0.988;entryDx=0;entryDy=0;entryPerimeter=0;" parent="WIyWlLk6GJQsqaUBKTNV-1" source="cpkmOehmuOlewmSr3O2M-38" target="cpkmOehmuOlewmSr3O2M-49" edge="1">
          <mxGeometry width="50" height="50" relative="1" as="geometry">
            <mxPoint x="261" y="113" as="sourcePoint" />
            <mxPoint x="480" y="108" as="targetPoint" />
          </mxGeometry>
        </mxCell>
        <mxCell id="cpkmOehmuOlewmSr3O2M-74" value="" style="endArrow=none;html=1;rounded=0;exitX=1;exitY=0.5;exitDx=0;exitDy=0;entryX=0;entryY=0.5;entryDx=0;entryDy=0;" parent="WIyWlLk6GJQsqaUBKTNV-1" source="cpkmOehmuOlewmSr3O2M-65" target="cpkmOehmuOlewmSr3O2M-47" edge="1">
          <mxGeometry width="50" height="50" relative="1" as="geometry">
            <mxPoint x="271" y="123" as="sourcePoint" />
            <mxPoint x="490" y="118" as="targetPoint" />
          </mxGeometry>
        </mxCell>
        <mxCell id="cpkmOehmuOlewmSr3O2M-75" value="*" style="text;html=1;align=center;verticalAlign=middle;resizable=0;points=[];autosize=1;strokeColor=none;fillColor=none;" parent="WIyWlLk6GJQsqaUBKTNV-1" vertex="1">
          <mxGeometry x="430" y="340" width="30" height="30" as="geometry" />
        </mxCell>
        <mxCell id="cpkmOehmuOlewmSr3O2M-76" value="1" style="text;html=1;align=center;verticalAlign=middle;resizable=0;points=[];autosize=1;strokeColor=none;fillColor=none;" parent="WIyWlLk6GJQsqaUBKTNV-1" vertex="1">
          <mxGeometry x="310" y="450" width="30" height="30" as="geometry" />
        </mxCell>
        <mxCell id="cpkmOehmuOlewmSr3O2M-77" value="*" style="text;html=1;align=center;verticalAlign=middle;resizable=0;points=[];autosize=1;strokeColor=none;fillColor=none;" parent="WIyWlLk6GJQsqaUBKTNV-1" vertex="1">
          <mxGeometry x="350" y="60" width="30" height="30" as="geometry" />
        </mxCell>
        <mxCell id="cpkmOehmuOlewmSr3O2M-78" value="1" style="text;html=1;align=center;verticalAlign=middle;resizable=0;points=[];autosize=1;strokeColor=none;fillColor=none;" parent="WIyWlLk6GJQsqaUBKTNV-1" vertex="1">
          <mxGeometry x="430" y="60" width="30" height="30" as="geometry" />
        </mxCell>
        <mxCell id="cpkmOehmuOlewmSr3O2M-79" value="*" style="text;html=1;align=center;verticalAlign=middle;resizable=0;points=[];autosize=1;strokeColor=none;fillColor=none;" parent="WIyWlLk6GJQsqaUBKTNV-1" vertex="1">
          <mxGeometry x="570" y="590" width="30" height="30" as="geometry" />
        </mxCell>
        <mxCell id="cpkmOehmuOlewmSr3O2M-80" value="1" style="text;html=1;align=center;verticalAlign=middle;resizable=0;points=[];autosize=1;strokeColor=none;fillColor=none;" parent="WIyWlLk6GJQsqaUBKTNV-1" vertex="1">
          <mxGeometry x="570" y="490" width="30" height="30" as="geometry" />
        </mxCell>
      </root>
    </mxGraphModel>
  </diagram>
</mxfile>
